<?xml version="1.0" encoding="UTF-8"?>
<svg id="Layer_2" data-name="Layer 2" xmlns="http://www.w3.org/2000/svg" viewBox="0 0 70.19 70.34">
  <defs>
    <style>
      .cls-1 {
        fill: #57aebd;
      }

      .cls-2 {
        fill: #222526;
      }

      .cls-3 {
        fill: #92c97f;
      }

      .cls-4 {
        fill: #162428;
      }

      .cls-5 {
        fill: #abddec;
      }

      .cls-6 {
        fill: #1e2321;
      }

      .cls-7 {
        fill: #98c58f;
      }

      .cls-8 {
        fill: #4faf4b;
      }
    </style>
  </defs>
  <g id="Layer_1-2" data-name="Layer 1">
    <path class="cls-6" d="M6.11,68.63c-2-1.6-3.58-2.81-5.1-4.1-1.44-1.22-1.35-1.78,.4-2.48,3.57-1.43,7.25-2.54,11.14-3.36-3.14-6.52-5.01-13.35-6.2-20.39-.14-.83-.55-1.82,.09-2.46,.73-.74,1.62,0,2.38,.28,5.57,2.02,11.03,4.27,15.98,7.59,.86,.58,1.28,.69,1.71-.63,1.73-5.44,4.23-10.55,7.15-15.46,1.68-2.83,1.86-2.83,3.5-.09,3.08,5.14,5.58,10.55,7.53,16.42,4.2-2.49,8.46-4.75,12.97-6.49,1.46-.56,2.92-1.13,4.39-1.64,1.39-.49,2.16-.38,1.88,1.51-1.08,7.08-2.91,13.92-5.89,20.44-.11,.25-.21,.51-.37,.91,3.77,.81,7.35,1.95,10.88,3.25,2.12,.78,2.18,1.08,.49,2.6-1.47,1.32-3.03,2.54-4.93,4.11,1.89,0,3.35,0,4.81,0,.6,0,1.25,.06,1.26,.81,0,.72-.62,.87-1.23,.88-.43,.01-.86,0-1.29,0-21.69,0-43.38,0-65.08,0-.29,0-.57,0-.86-.01-.69-.03-1.62,.14-1.6-.91,.02-1.13,1.01-.75,1.65-.78,1.27-.05,2.54-.01,4.38-.01Zm29.35-10.73c-.13-.8-.33-1.57-.89-2.2-.14-.32-.22-.67-.41-.95-4.37-6.64-10.87-10.49-17.93-13.6-2.55-1.28-5.09-2.56-8.18-3.28,1.06,5.15,1.71,10.08,3.96,14.59l-.03,.15c.28,.87,.32,1.83,1.05,2.52,.06,.24,.12,.48,.18,.72,.6,.98,.38,2.81,2.3,2.46,3.77-.69,7.52-.32,11.27,.15l-.02-.03c1.14,.52,2.28,1.04,3.43,1.56,1.73,1.36,3.43,2.74,4.34,4.84,.42,.95,1.09,.45,1.1-.07,.03-1.77,1.2-3.49,.27-5.3-.1-.54,.15-1.18-.47-1.56h.03Zm23.25-7.17c1.1-2.34,1.86-4.79,2.3-7.34,.18-.76,.47-1.52,.51-2.28,.04-.8,.65-1.68-.1-2.41-.85-.82-1.76-.26-2.57,.08-4.68,1.95-9.32,3.99-13.51,6.86-3.06,2.09-6.02,4.35-8.24,7.4-.49,.67-1.15,1.3-.64,2.3,.95,1.84,1.26,3.87,1.61,6.09,1.67-1.23,3.29-2.24,5.15-2.76,1.95-.44,3.92-.73,5.91-.79,1.33,.07,2.65,.18,3.98,.18,.96,0,1.98,.88,2.9-.14,1.25-2.27,2.31-4.61,2.74-7.19h-.03Zm-22.37,17.93c7.99,0,15.85,0,23.71,0,.51,0,.96-.05,1.4-.39,1.64-1.25,3.32-2.46,4.98-3.7,.92-.69,1.12-1.23-.23-1.68-5.84-1.93-11.76-3.54-17.98-3.17-5.5,.33-10.11,1.67-11.87,8.94ZM2.8,63.56c1.7,1.79,3.65,2.97,5.45,4.33,.79,.6,1.6,.8,2.57,.79,7.15-.03,14.3-.06,21.45,.02,1.56,.02,1.85-.47,1.33-1.78-1.51-3.84-4.45-5.96-8.37-6.83-3.63-.81-7.31-.47-10.88,.12-3.91,.64-7.8,1.62-11.56,3.36ZM35.41,28.02c-3.25,5.24-5.52,10.52-7.5,15.94-.34,.92-.26,1.57,.59,2.21,2.05,1.54,3.94,3.28,5.5,5.32,.74,.97,1.33,1.11,2.09,.07,1.7-2.32,3.94-4.08,6.17-5.83,.66-.51,.87-.97,.58-1.8-1.88-5.46-4.25-10.69-7.44-15.9Z"/>
    <path class="cls-1" d="M29.34,4.65c.87,1.45,1.74,2.9,2.6,4.35-1.03,1.38,.45,2.2,.79,3.24,.96,2.89,.32,5.93-1.84,7.81-1.97,1.71-5.29,2.03-7.62,.73-2.53-1.41-4.09-4.36-3.24-7.27,1.22-4.16,3.93-7.55,6.29-10.9,1.38,.5,1.27,2.49,3.01,2.04Z"/>
    <path class="cls-4" d="M29.34,4.65c-1.74,.45-1.62-1.54-3.01-2.04-2.36,3.35-5.07,6.74-6.29,10.9-.85,2.91,.71,5.86,3.24,7.27,2.32,1.3,5.65,.98,7.62-.73,2.17-1.88,2.81-4.93,1.84-7.81-.35-1.04-1.82-1.86-.79-3.24,.7-.09,1.13,.16,1.54,.8,2.26,3.56,1.84,8.43-1.04,11.22-2.81,2.73-7.33,3.24-10.42,1.16-3.59-2.42-4.88-6.8-3.07-10.92,1.67-3.8,4.05-7.17,6.52-10.48,.76-1.03,1.52-1.06,2.13,.05,.67,1.22,2.46,1.97,1.73,3.82Z"/>
    <path class="cls-2" d="M49.98,35.67c-4.56,0-7.48-4.46-5.65-8.7,1.13-2.62,2.81-4.93,4.42-7.26,.77-1.12,1.57-1.12,2.36-.03,1.74,2.42,3.52,4.84,4.59,7.65,1.56,4.11-1.38,8.35-5.72,8.34Zm.08-14.73c-1.69,2.04-2.9,4.11-3.96,6.27-1.08,2.18-.62,4.52,1.16,5.95,1.38,1.11,3.86,1.12,5.41,.03,1.6-1.13,2.2-3.75,1.3-5.79-1.01-2.28-2.56-4.2-3.91-6.46Z"/>
    <path class="cls-3" d="M56,57.93c-.91,1.02-1.93,.14-2.9,.14-1.33,0-2.65-.12-3.98-.18-1.71-.72-3.49-.28-5.24-.31-.65-.01-.72,.56-.68,1.1-1.86,.52-3.49,1.53-5.15,2.76-.35-2.22-.66-4.25-1.61-6.09-.51-.99,.15-1.62,.64-2.3,2.21-3.06,5.17-5.31,8.24-7.4,4.2-2.86,8.84-4.91,13.51-6.86,.81-.34,1.72-.9,2.57-.08,.76,.73,.15,1.62,.1,2.41-.04,.77-.33,1.52-.51,2.28-.18-.04-.53-.14-.53-.11-.84,2.42-1.94,4.79-1.76,7.45,0,0,.03,0,.03,0-.82,.26-.81,1.05-1.09,1.67-.5,1.14-.81,2.4-1.87,3.23-.66,.52-.57,1.36,.22,2.29Z"/>
    <path class="cls-3" d="M16.23,41.15c7.06,3.11,13.56,6.96,17.93,13.6,.19,.29,.28,.63,.41,.95,.17,.79-.65,1.97,.89,2.2,0,0-.03,0-.03,0,0,.86,0,1.71,0,2.57,.11,0,.22,0,.33,0,.04-.34,.09-.67,.13-1.01,.93,1.81-.24,3.53-.27,5.3,0,.51-.68,1.02-1.1,.07-.92-2.09-2.62-3.48-4.34-4.84-.72-1.43-2-1.67-3.43-1.56,0,0,.02,.03,.02,.03-.88-1.68-2.92-.33-4.17-1.49,1.11-.61,2.46,0,3.25-1.13H13.21c-.06-.24-.12-.48-.18-.72-.37-.83,.97-2.37-1.05-2.52,0,0,.03-.15,.04-.15,.25-.63,.19-1.23-.06-1.86-1.2-2.92-1.65-6.05-2.45-9.09-.17-.63-.51-1.26,.17-1.73,.63-.45,1.3-.31,2,.02,1.45,.68,2.93,1.29,4.56,1.35Z"/>
    <path class="cls-8" d="M36.34,68.67c1.77-7.27,6.37-8.62,11.87-8.94,6.22-.37,12.14,1.24,17.98,3.17,1.36,.45,1.15,.99,.23,1.68-1.66,1.24-3.33,2.45-4.98,3.7-.44,.33-.89,.39-1.4,.39-7.86,0-15.72,0-23.71,0Z"/>
    <path class="cls-8" d="M2.8,63.56c3.76-1.74,7.65-2.71,11.56-3.36,3.57-.59,7.25-.93,10.88-.12,3.92,.88,6.86,3,8.37,6.83,.52,1.31,.23,1.8-1.33,1.78-7.15-.08-14.3-.05-21.45-.02-.97,0-1.78-.19-2.57-.79-1.8-1.37-3.75-2.55-5.45-4.33Z"/>
    <path class="cls-8" d="M35.41,28.02c3.19,5.21,5.56,10.44,7.44,15.9,.29,.83,.08,1.29-.58,1.8-2.24,1.75-4.48,3.51-6.17,5.83-.76,1.04-1.35,.9-2.09-.07-1.56-2.04-3.45-3.78-5.5-5.32-.85-.64-.93-1.28-.59-2.21,1.97-5.43,4.25-10.71,7.5-15.94Z"/>
    <path class="cls-7" d="M13.21,55.85h12.64c-.79,1.13-2.14,.52-3.25,1.13,1.25,1.16,3.29-.19,4.17,1.49-3.75-.48-7.49-.84-11.27-.15-1.92,.35-1.7-1.48-2.3-2.46Z"/>
    <path class="cls-7" d="M16.23,41.15c-1.64-.06-3.12-.68-4.56-1.35-.7-.33-1.37-.46-2-.02-.68,.47-.33,1.1-.17,1.73,.8,3.03,1.25,6.16,2.45,9.09,.26,.63,.31,1.23,.06,1.86-2.26-4.51-2.9-9.45-3.96-14.59,3.08,.72,5.63,2,8.18,3.28Z"/>
    <path class="cls-7" d="M56,57.93c-.79-.93-.88-1.77-.22-2.29,1.06-.83,1.37-2.09,1.87-3.23,.28-.62,.26-1.41,1.09-1.67-.43,2.58-1.49,4.92-2.74,7.19Z"/>
    <path class="cls-7" d="M58.71,50.74c-.18-2.66,.92-5.03,1.76-7.45,0-.02,.35,.07,.53,.11-.43,2.55-1.2,5-2.3,7.34Z"/>
    <path class="cls-7" d="M43.21,58.67c-.05-.54,.03-1.11,.68-1.1,1.75,.03,3.53-.41,5.24,.31-2,.06-3.97,.34-5.91,.79Z"/>
    <path class="cls-7" d="M26.75,58.44c1.43-.11,2.7,.13,3.43,1.56-1.14-.52-2.29-1.04-3.43-1.56Z"/>
    <path class="cls-7" d="M11.98,52.61c2.02,.14,.67,1.69,1.05,2.52-.73-.68-.77-1.65-1.05-2.52Z"/>
    <path class="cls-7" d="M35.9,59.47c-.04,.34-.09,.67-.13,1.01-.11,0-.22,0-.33,0,0-.86,0-1.71,0-2.57,.61,.38,.37,1.02,.47,1.56Z"/>
    <path class="cls-7" d="M35.46,57.91c-1.54-.23-.72-1.42-.89-2.2,.55,.63,.76,1.4,.89,2.2Z"/>
    <path class="cls-5" d="M50.06,20.94c1.34,2.26,2.9,4.18,3.91,6.46,.9,2.04,.3,4.66-1.3,5.79-1.55,1.09-4.03,1.08-5.41-.03-1.78-1.43-2.24-3.77-1.16-5.95,1.06-2.16,2.27-4.23,3.96-6.27Z"/>
  </g>
</svg>